<?xml version="1.0" encoding="UTF-8"?>
<svg width="122px" height="16px" viewBox="0 0 122 16" version="1.1" xmlns="http://www.w3.org/2000/svg" xmlns:xlink="http://www.w3.org/1999/xlink">
    <!-- Generator: Sketch 61.2 (89653) - https://sketch.com -->
    <title>WorldCup2018</title>
    <desc>Created with Sketch.</desc>
    <g id="Page-1" stroke="none" stroke-width="1" fill="none" fill-rule="evenodd">
        <path d="M5.76,12 L8,3.408 L8.064,3.408 L10.288,12 L12.272,12 L15.568,0.576 L13.456,0.576 L11.312,9.264 L11.248,9.264 L8.992,0.576 L7.056,0.576 L4.8,9.264 L4.736,9.264 L2.592,0.576 L0.48,0.576 L3.76,12 L5.76,12 Z M20.448,12.224 C21.696,12.224 22.72,11.808 23.488,10.976 C24.224,10.176 24.608,9.136 24.608,7.872 C24.608,6.592 24.224,5.552 23.472,4.736 C22.704,3.904 21.696,3.504 20.448,3.504 C19.184,3.504 18.176,3.904 17.424,4.736 C16.656,5.552 16.288,6.592 16.288,7.872 C16.288,9.136 16.656,10.176 17.408,10.976 C18.176,11.808 19.184,12.224 20.448,12.224 Z M20.448,10.736 C19.68,10.736 19.104,10.432 18.688,9.84 C18.336,9.328 18.16,8.672 18.16,7.872 C18.16,7.072 18.336,6.4 18.688,5.888 C19.104,5.28 19.68,4.992 20.448,4.992 C21.2,4.992 21.792,5.28 22.208,5.888 C22.56,6.4 22.752,7.072 22.752,7.872 C22.752,8.656 22.56,9.312 22.208,9.84 C21.792,10.432 21.2,10.736 20.448,10.736 Z M28.016,12 L28.016,7.616 C28.016,6.912 28.224,6.352 28.672,5.92 C29.056,5.536 29.488,5.36 29.968,5.36 C30.352,5.36 30.736,5.408 31.152,5.536 L31.152,3.712 C30.864,3.568 30.512,3.504 30.112,3.504 C29.6,3.504 29.168,3.648 28.8,3.952 C28.496,4.176 28.24,4.496 28.016,4.912 L28.016,3.728 L26.208,3.728 L26.208,12 L28.016,12 Z M34.176,12 L34.176,0.352 L32.352,0.352 L32.352,12 L34.176,12 Z M39.776,12.224 C40.864,12.224 41.696,11.856 42.272,11.12 L42.272,12 L43.968,12 L43.968,0.352 L42.144,0.352 L42.144,4.864 C41.456,3.952 40.64,3.504 39.68,3.504 C38.496,3.504 37.552,3.936 36.88,4.8 C36.24,5.6 35.936,6.608 35.936,7.824 C35.936,9.088 36.256,10.128 36.896,10.928 C37.584,11.792 38.544,12.224 39.776,12.224 Z M40.048,10.752 C39.232,10.752 38.64,10.464 38.272,9.888 C37.952,9.408 37.808,8.72 37.808,7.824 C37.808,6.928 37.968,6.256 38.304,5.792 C38.688,5.248 39.28,4.976 40.112,4.976 C40.688,4.976 41.184,5.216 41.568,5.696 C41.984,6.208 42.208,6.912 42.208,7.792 L42.208,7.92 C42.208,8.72 42.032,9.392 41.696,9.904 C41.312,10.464 40.752,10.752 40.048,10.752 Z M56.368,12.224 C57.6,12.224 58.656,11.872 59.536,11.168 C60.48,10.416 61.072,9.376 61.328,8.032 L59.504,8.032 C59.28,8.896 58.896,9.552 58.352,9.984 C57.84,10.368 57.168,10.576 56.352,10.576 C55.104,10.576 54.176,10.176 53.584,9.408 C53.04,8.688 52.768,7.648 52.768,6.304 C52.768,4.992 53.04,3.968 53.6,3.232 C54.208,2.4 55.104,2 56.304,2 C57.104,2 57.76,2.16 58.272,2.512 C58.8,2.864 59.152,3.408 59.344,4.16 L61.168,4.16 C60.992,3.008 60.496,2.08 59.664,1.408 C58.8,0.704 57.68,0.352 56.336,0.352 C54.512,0.352 53.12,0.944 52.16,2.16 C51.312,3.216 50.896,4.608 50.896,6.304 C50.896,8.032 51.296,9.408 52.112,10.432 C53.04,11.616 54.464,12.224 56.368,12.224 Z M65.904,12.224 C66.928,12.224 67.792,11.792 68.496,10.928 L68.496,12 L70.32,12 L70.32,3.728 L68.496,3.728 L68.496,8.784 C68.336,9.376 68.064,9.84 67.696,10.192 C67.328,10.528 66.944,10.704 66.544,10.704 C65.904,10.704 65.456,10.544 65.168,10.24 C64.88,9.92 64.752,9.44 64.752,8.768 L64.752,3.728 L62.928,3.728 L62.928,8.88 C62.928,11.104 63.92,12.224 65.904,12.224 Z M74.064,15.168 L74.064,10.864 C74.736,11.76 75.568,12.224 76.528,12.224 C77.712,12.224 78.656,11.792 79.328,10.928 C79.952,10.128 80.272,9.12 80.272,7.904 C80.272,6.624 79.952,5.6 79.312,4.8 C78.608,3.936 77.648,3.504 76.432,3.504 C75.344,3.504 74.512,3.872 73.936,4.608 L73.936,3.728 L72.24,3.728 L72.24,15.168 L74.064,15.168 Z M76.096,10.752 C75.504,10.752 75.024,10.512 74.64,10.032 C74.208,9.504 74,8.8 74,7.936 L74,7.808 C74,6.976 74.16,6.32 74.512,5.824 C74.896,5.248 75.44,4.976 76.16,4.976 C76.96,4.976 77.552,5.264 77.936,5.84 C78.24,6.32 78.4,7.008 78.4,7.904 C78.4,8.8 78.224,9.488 77.888,9.968 C77.504,10.48 76.896,10.752 76.096,10.752 Z M95.024,12 L95.024,10.352 L89.392,10.352 C89.648,9.776 90.352,9.104 91.52,8.336 C92.64,7.584 93.44,6.976 93.888,6.496 C94.624,5.68 95.008,4.784 95.008,3.792 C95.008,2.768 94.656,1.952 93.952,1.312 C93.232,0.672 92.32,0.352 91.216,0.352 C89.984,0.352 88.992,0.768 88.24,1.6 C87.504,2.384 87.136,3.408 87.12,4.688 L88.992,4.688 C89.024,3.792 89.216,3.104 89.568,2.656 C89.92,2.176 90.448,1.936 91.152,1.936 C91.808,1.936 92.304,2.08 92.64,2.384 C92.96,2.688 93.136,3.152 93.136,3.776 C93.136,4.416 92.88,5.024 92.384,5.584 C92.064,5.92 91.552,6.352 90.816,6.864 C89.488,7.776 88.608,8.48 88.192,8.96 C87.424,9.824 87.056,10.832 87.056,12 L95.024,12 Z M100.64,12.224 C101.968,12.224 103.008,11.664 103.76,10.56 C104.464,9.504 104.816,8.08 104.816,6.288 C104.816,4.496 104.464,3.072 103.76,2.016 C103.008,0.896 101.968,0.352 100.64,0.352 C99.296,0.352 98.256,0.896 97.52,2.016 C96.816,3.072 96.464,4.496 96.464,6.288 C96.464,8.08 96.816,9.504 97.52,10.56 C98.256,11.664 99.296,12.224 100.64,12.224 Z M100.64,10.64 C99.728,10.64 99.088,10.128 98.72,9.12 C98.464,8.416 98.336,7.472 98.336,6.288 C98.336,5.088 98.464,4.144 98.72,3.456 C99.088,2.432 99.728,1.936 100.64,1.936 C101.536,1.936 102.176,2.432 102.56,3.456 C102.816,4.144 102.944,5.088 102.944,6.288 C102.944,7.472 102.816,8.416 102.56,9.12 C102.176,10.128 101.536,10.64 100.64,10.64 Z M110.56,12 L110.56,0.576 L109.152,0.576 C108.768,0.976 108.288,1.344 107.712,1.696 C107.136,2.016 106.592,2.24 106.08,2.368 L106.08,4.224 C107.136,3.92 108,3.456 108.688,2.832 L108.688,12 L110.56,12 Z M116.8,12.224 C118.16,12.224 119.216,11.904 119.968,11.28 C120.704,10.64 121.088,9.824 121.088,8.8 C121.088,8.096 120.864,7.472 120.432,6.928 C120.048,6.432 119.584,6.112 119.056,5.968 L119.056,5.936 C119.616,5.712 120.032,5.376 120.32,4.96 C120.576,4.56 120.704,4.064 120.704,3.488 C120.704,2.624 120.368,1.904 119.728,1.328 C118.992,0.672 118.016,0.352 116.8,0.352 C115.568,0.352 114.592,0.672 113.872,1.328 C113.216,1.904 112.896,2.624 112.896,3.488 C112.896,4.064 113.024,4.56 113.28,4.96 C113.552,5.376 113.968,5.712 114.544,5.936 L114.544,5.968 C114,6.112 113.552,6.432 113.168,6.928 C112.72,7.472 112.512,8.096 112.512,8.8 C112.512,9.824 112.88,10.64 113.632,11.28 C114.368,11.904 115.424,12.224 116.8,12.224 Z M116.8,5.36 C116,5.36 115.44,5.168 115.088,4.8 C114.8,4.496 114.656,4.08 114.656,3.552 C114.656,3.088 114.832,2.704 115.184,2.384 C115.584,2.016 116.128,1.84 116.8,1.84 C117.472,1.84 118,2.016 118.416,2.384 C118.768,2.704 118.944,3.088 118.944,3.552 C118.944,4.08 118.8,4.496 118.512,4.8 C118.16,5.168 117.584,5.36 116.8,5.36 Z M116.8,10.72 C116.016,10.72 115.424,10.544 115.008,10.192 C114.576,9.84 114.368,9.376 114.368,8.8 C114.368,8.192 114.56,7.696 114.976,7.328 C115.392,6.944 116,6.752 116.8,6.752 C117.6,6.752 118.208,6.944 118.64,7.344 C119.024,7.696 119.232,8.192 119.232,8.8 C119.232,9.376 119.024,9.824 118.624,10.176 C118.176,10.528 117.568,10.72 116.8,10.72 Z" id="WorldCup2018" fill="#379DFF" fill-rule="nonzero"></path>
    </g>
</svg>